<?xml version="1.0" encoding="utf-8"?>
<!-- Generator: Adobe Illustrator 26.4.1, SVG Export Plug-In . SVG Version: 6.00 Build 0)  -->
<svg version="1.1" id="Capa_1" xmlns="http://www.w3.org/2000/svg" xmlns:xlink="http://www.w3.org/1999/xlink" x="0px" y="0px"
	 viewBox="0 0 1080 371" style="enable-background:new 0 0 1080 371;" xml:space="preserve">
<style type="text/css">
	.st0{fill:url(#SVGID_1_);}
	.st1{fill:url(#SVGID_00000170962770832262676920000012360679606743509676_);}
	.st2{fill:#F8C739;}
	.st3{fill:#F09A2E;}
	.st4{fill:url(#SVGID_00000148637800321388748700000011588178349604392337_);}
	.st5{fill:url(#SVGID_00000107589099988142629660000018037321553269475507_);}
	.st6{fill:url(#SVGID_00000147933074969968160120000002714456364239020704_);}
	.st7{fill:url(#SVGID_00000097480255917476963660000010452022186677548939_);}
	.st8{fill:url(#SVGID_00000037663361495929372520000007635628175218571177_);}
	.st9{fill:url(#SVGID_00000178909828655177971790000007662736453755395496_);}
	.st10{fill:url(#SVGID_00000059276193165364777090000016647219941848649101_);}
	.st11{fill:url(#SVGID_00000127748008227619833250000001327236801970080179_);}
	.st12{fill:url(#SVGID_00000078728341696436028570000009711930118619352765_);}
	.st13{fill:url(#SVGID_00000088827450859693068750000010422908796236380553_);}
	.st14{fill:url(#SVGID_00000028319552009610772870000016584629600646054051_);}
	.st15{fill:#1885C0;}
	.st16{fill:#134D95;}
	.st17{fill:#F8C339;}
	.st18{fill:#2FA330;}
	.st19{fill:#EB7D1C;}
</style>
<g>
	<g>
		<g>
			<linearGradient id="SVGID_1_" gradientUnits="userSpaceOnUse" x1="189.2289" y1="185.4327" x2="498.5392" y2="185.4327">
				<stop  offset="0" style="stop-color:#0092C4"/>
				<stop  offset="1" style="stop-color:#004D93"/>
			</linearGradient>
			<path class="st0" d="M493.23,209c-2.72-3.46-6.74-4.93-9.84-7.67c-8.7-7.71-18.71-12.61-29.92-15.58
				c-5.48-1.45-9.36-4.16-9.36-11.52c-0.04-34.45-0.92-68.9-1.21-103.35c-0.06-7.37-3.59-11.94-9.61-15.01
				c-9.02-4.61-18.65-7.47-28.65-9.07c-13.5-4.04-27.44-5.18-41.39-6.12c-7.93-0.54-15.86-0.22-23.59,2.13
				c-5.16,1.57-8.46,4.2-8.72,10.21c-0.38,8.85-1.15,17.71-2.19,26.51c-2.13,18-3.28,36.16-8.02,53.78
				c-0.24,1.54-0.48,3.08-0.72,4.62c-5.53,28.97-16.22,55.79-33.48,79.83c-1.47,2.05-3.35,3.8-5.04,5.69
				c-3.13,5-6.76,9.56-11.58,13.06c-0.2,2.66-2.46,3.86-4.03,5.48c-19.85,20.45-43.02,36.56-67.18,51.4
				c-3.38,2.08-7.29,3.75-9.48,8.1c6.06,0.03,11.33-0.66,16.54-2.16c21.33-6.17,40.14-17,57.2-30.99
				c6.66-5.46,13.02-11.28,19.52-16.94c4.1-4.12,6.23-10.26,12.45-12.23c-1.57-2.88,1.1-4.34,2.34-5.93
				c30.09-38.53,49.07-82.17,60.07-129.55c2.97-12.8,5.09-25.74,5.95-38.81c0.39-5.96,2.95-6.92,7.91-6.25
				c4.16,0.56,8.37,0.73,12.56,1.06c11.49,2.18,23.05,3.93,34.29,7.37c5.82,1.79,8.03,4.6,7.75,11.02
				c-1.57,35.6-1.84,71.22-1.62,106.85c0.06,9.46,1.89,11.66,11.06,14.39c1.79,0.53,3.61,0.98,5.38,1.57
				c12.92,4.3,25.45,9.43,36.51,17.61c4.38,3.24,3.86,5.89-0.79,8.14c-3.14,1.51-6.02,3.05-7.73,6.49
				c-6.79,13.62-18.14,20.63-33.1,22.08c-5.36,0.52-8.07,3.49-7.95,8.79c0.45,19.68,0.19,39.38,2.08,59
				c0.29,3.05-0.22,7.43,4.52,7.4c4.65-0.03,4.12-4.3,4.53-7.41c2.04-15.39,1.35-30.89,1.37-46.34c0.01-5.7,1.02-8.71,7.6-9.73
				c13.15-2.05,23.78-9.18,31.56-19.95c2.76-3.82,5.88-6.74,9.76-9.3C500.13,230.31,501.5,219.52,493.23,209z"/>
			
				<linearGradient id="SVGID_00000105406395428012653460000012179504985148767148_" gradientUnits="userSpaceOnUse" x1="281.7994" y1="138.9702" x2="281.7994" y2="71.9558">
				<stop  offset="0" style="stop-color:#00963A"/>
				<stop  offset="1" style="stop-color:#009F33"/>
			</linearGradient>
			<path style="fill:url(#SVGID_00000105406395428012653460000012179504985148767148_);" d="M244.33,138.04
				c-1.75-1.29-1.6-3.06-1.24-4.89c5.64,0.96,6.99-1.45,6.91-6.97c-0.23-15.22,0.32-30.45,0.45-45.68c0.06-6.41,2.3-9.45,9.42-8.3
				c14.65,2.37,29.41,2.31,44.07,0.03c6.78-1.05,9.6,1.56,9.47,8.23c-0.33,15.92,2.18,31.83,0.54,47.75
				c-0.61,5.93,3.46,4.84,6.79,5.12c-0.24,1.54-0.48,3.08-0.71,4.62c-11.86,2.52-14.05,1-14.67-11.39
				c-0.54-10.75-0.67-21.53-0.74-32.3c-0.03-4.8-1.74-6.68-6.73-5.94c-10.93,1.62-21.91,2-32.86-0.02c-3.88-0.71-5.4,0.51-5.44,4.72
				c-0.11,11.23-0.67,22.46-1.09,33.69C258.08,138.37,255.54,140.39,244.33,138.04z"/>
			<path class="st2" d="M282.49,251.41c4.1-4.12,6.23-10.26,12.45-12.23c22.72,24.7,51.18,42.01,78.68,60.95
				c-6.65,1.77-12.83,0.26-18.87-1.76C326.61,288.97,302.81,272.85,282.49,251.41z"/>
			<path class="st3" d="M171.37,60.93c1.18-1.29,2.17-3.5,4.2-0.92C174.31,60.96,172.91,61.28,171.37,60.93z"/>
			<path class="st3" d="M178.33,43.24c-1.58,1.83-3.69,1.14-5.64,1.2C174.45,43.45,176.27,42.76,178.33,43.24z"/>
			<path class="st2" d="M220.27,148.63c1.98,0.8,1.74,2.51,1.69,4.14C220.75,151.66,220.26,150.25,220.27,148.63z"/>
			
				<linearGradient id="SVGID_00000151512006457801475710000012199374405804635051_" gradientUnits="userSpaceOnUse" x1="66.4362" y1="182.0674" x2="282.6897" y2="189.6191">
				<stop  offset="0" style="stop-color:#E86A2A"/>
				<stop  offset="1" style="stop-color:#F9C61C"/>
			</linearGradient>
			<path style="fill:url(#SVGID_00000151512006457801475710000012199374405804635051_);" d="M245.01,145.53
				c-0.61-2.39-1.73-4.89-0.68-7.49c-1.75-1.29-1.6-3.06-1.24-4.89c-0.6-1.42-1.2-2.84-1.8-4.27c-4.06-24.86-7.01-49.86-8.49-75
				c-0.36-6.12-3.07-9.57-8.74-10.91c-13.82-3.26-27.66-2.91-41.49-0.02c-1.41,0.09-2.82,0.19-4.22,0.28
				c-1.58,1.83-3.69,1.14-5.64,1.2c-13.83,1.29-27.06,4.93-39.85,10.23c-8.19,3.39-12.02,9.15-12.05,18.44
				c-0.11,33.69-0.76,67.39-1.36,101.08c-0.05,2.76,1.52,6.82-2.46,7.98c-7.85,2.29-14.76,6.52-22.08,9.88
				c-9.6,4.4-18.72,9.71-25.18,18.43c-6.06,8.18-6.78,18.64,0.83,24.06c9.32,6.62,15.42,16.08,24.15,22.96
				c3.84,3.02,8.06,5.61,13,6.62c1.16,1.41,2.79,1.52,4.42,1.6l0-0.01c1.65,1.61,3.76,1.28,5.79,1.33
				c-0.36-0.66-0.78-1.08-1.24-1.35c0.46,0.27,0.88,0.69,1.24,1.35c0.99,0.13,1.98,0.26,2.97,0.39c3.28,1.57,2.6,4.63,2.64,7.33
				c0.14,10.98,0,21.97,0.38,32.94c0.21,6.27,1.18,12.53,1.89,18.78c0.26,2.26,1.23,4.11,3.9,4.07c2.62-0.04,3.55-1.77,3.84-4.12
				c0.23-1.85,0.76-3.67,0.92-5.52c1.65-19.1,1.53-38.27,1.65-57.41c0.04-6.27-3.82-8.57-9.68-8.21
				c-13.52-2.58-24.4-8.74-31.1-21.46c-1.33-2.53-3.76-4.96-6.79-6.62c-6.43-3.53-6.38-5.71-0.38-9.85
				c11.87-8.19,25.11-13.41,38.79-17.57c11.45-3.48,12.93-5.15,12.79-17.32c-0.39-35.09-0.77-70.18-1.49-105.26
				c-0.12-5.8,1.94-8.72,7.27-9.99c8.63-2.05,17.24-4.17,25.86-6.26c1.18-1.29,2.17-3.5,4.2-0.92c0.93-0.06,1.87-0.12,2.8-0.18
				c4.19-0.37,8.37-0.73,12.56-1.1c9.44-0.84,9.27-0.8,10.03,8.36c2.32,28.15,8.97,55.29,19.31,81.55c1.98,0.8,1.74,2.51,1.69,4.14
				l0,0c5.57,17.67,14.27,33.86,23.62,49.72c7.1,12.05,14.18,24.15,24.34,34.02c4.82-3.5,8.46-8.05,11.58-13.06
				C263.17,200.38,252.21,173.83,245.01,145.53z M116.24,265.56c-0.34-0.13-0.68-0.27-1.05-0.28
				C115.55,265.29,115.89,265.43,116.24,265.56z M114.99,265.29c-0.96,0-1.98,0.23-2.95,0.29l0,0l0,0l0,0l0,0
				C113.01,265.52,114.03,265.29,114.99,265.29z"/>
		</g>
	</g>
	<g>
		<g>
			
				<linearGradient id="SVGID_00000074421472590523968660000000167267020987505851_" gradientUnits="userSpaceOnUse" x1="520.8574" y1="137.3535" x2="619.6757" y2="137.3535">
				<stop  offset="0" style="stop-color:#0092C4"/>
				<stop  offset="1" style="stop-color:#004D93"/>
			</linearGradient>
			<path style="fill:url(#SVGID_00000074421472590523968660000000167267020987505851_);" d="M598.78,121.88
				c-0.94,2.18-1.82,4.38-2.84,6.52c-5.38,11.39-10.8,22.77-16.18,34.16c-0.67,1.42-1.68,2.06-3.27,2.03
				c-4.13-0.06-8.26-0.05-12.38,0c-1.54,0.02-2.47-0.61-3.18-1.99c-6.74-13.1-13.09-26.39-18.81-39.96
				c-0.11-0.27-0.28-0.52-0.43-0.77c-0.1,0.02-0.2,0.03-0.3,0.05c-0.03,0.39-0.09,0.78-0.08,1.16c0.22,5.33,0.51,10.66,0.68,15.99
				c0.25,8,0.47,16,0.59,24.01c0.1,6.72,0.03,13.45,0.02,20.18c0,2.22-0.66,2.88-2.84,2.88c-5.37,0-10.75,0-16.12,0
				c-1.98,0-2.71-0.71-2.77-2.67c-0.01-0.32,0-0.64,0-0.96c0-30.11,0-60.21,0-90.32c0-0.43-0.02-0.86,0.02-1.28
				c0.14-1.65,0.88-2.34,2.56-2.34c6.41-0.01,12.81,0,19.22-0.01c1.37,0,2.26,0.64,2.87,1.83c8.49,16.39,17.21,32.67,24.22,49.77
				c0.12,0.29,0.41,0.51,0.62,0.76c0.19-0.23,0.45-0.43,0.55-0.7c6.12-15.01,13.41-29.45,21.06-43.72c1.11-2.06,2.19-4.14,3.26-6.23
				c0.6-1.17,1.5-1.72,2.82-1.71c6.37,0.02,12.74,0,19.11,0.01c1.71,0,2.47,0.75,2.51,2.46c0.01,0.5,0,1,0,1.49
				c0,30.11,0,60.21,0,90.32c0,0.46,0.03,0.93-0.04,1.39c-0.17,1.18-0.89,1.89-2.07,1.89c-5.8,0.02-11.6,0.02-17.4,0
				c-1.19-0.01-1.9-0.67-2.15-1.84c-0.06-0.28-0.09-0.56-0.08-0.85c0.14-13.63,0.22-27.26,0.47-40.88
				c0.12-6.61,0.56-13.22,0.85-19.83c0.01-0.27-0.07-0.55-0.1-0.83C599.02,121.9,598.9,121.89,598.78,121.88z"/>
			
				<linearGradient id="SVGID_00000147179206731078886170000007522286910368809094_" gradientUnits="userSpaceOnUse" x1="942.4333" y1="150.4975" x2="1007.5622" y2="150.4975">
				<stop  offset="0" style="stop-color:#0092C4"/>
				<stop  offset="1" style="stop-color:#004D93"/>
			</linearGradient>
			<path style="fill:url(#SVGID_00000147179206731078886170000007522286910368809094_);" d="M1007.24,150.73
				c0,3.42,0.12,6.84-0.02,10.25c-0.48,12.02-7.13,21.07-18.6,24.76c-10.4,3.34-20.85,3.14-30.9-1.37
				c-8.43-3.79-13.28-10.54-14.78-19.65c-0.28-1.68-0.44-3.39-0.45-5.09c-0.04-6.33-0.13-12.67,0.03-19
				c0.32-12.55,7.49-22.1,19.53-25.64c10.24-3.01,20.47-2.8,30.26,1.8c8.25,3.88,13.09,10.62,14.4,19.58
				c0.69,4.72,0.59,9.56,0.84,14.35C1007.45,150.72,1007.35,150.72,1007.24,150.73z M963.85,150.62
				C963.85,150.62,963.86,150.62,963.85,150.62c0.01,3.34-0.1,6.69,0.04,10.02c0.17,4.02,2.73,7.27,6.63,8.14
				c2.18,0.49,4.51,0.59,6.74,0.45c5.05-0.32,8.68-3.97,8.78-8.87c0.13-6.43,0.12-12.87,0-19.3c-0.09-4.6-3.02-8.04-7.56-8.9
				c-1.95-0.37-4.03-0.39-6.02-0.21c-4.93,0.44-8.35,4.02-8.59,8.98C963.72,144.14,963.85,147.38,963.85,150.62z"/>
			
				<linearGradient id="SVGID_00000150090338083279105500000011557856538066955683_" gradientUnits="userSpaceOnUse" x1="631.8715" y1="150.4542" x2="694.1904" y2="150.4542">
				<stop  offset="0" style="stop-color:#0092C4"/>
				<stop  offset="1" style="stop-color:#004D93"/>
			</linearGradient>
			<path style="fill:url(#SVGID_00000150090338083279105500000011557856538066955683_);" d="M673.25,143.76
				c0.07-2.66,0-5.27-1.16-7.72c-1.46-3.07-4.2-4.25-7.34-4.54c-6.97-0.64-13.65,0.59-19.98,3.59c-1.69,0.8-2.64,0.51-3.51-1.13
				c-1.78-3.36-3.56-6.72-5.31-10.09c-1.03-1.97-0.82-2.68,1.09-3.81c5.74-3.38,11.97-5.33,18.53-6.3c4.41-0.65,8.85-0.88,13.3-0.42
				c7.97,0.81,15.01,3.46,19.91,10.23c2.95,4.07,4.43,8.73,4.96,13.66c0.33,3.07,0.43,6.17,0.44,9.26
				c0.05,11.35,0.02,22.7,0.02,34.06c0,2.18-0.52,2.87-2.65,3.49c-6.23,1.82-12.59,2.93-19.05,3.37c-3.69,0.25-7.39,0.45-11.08,0.36
				c-5.92-0.15-11.74-1.03-17.2-3.55c-9.49-4.38-13.07-12.71-12.21-22.18c0.84-9.3,6.55-14.45,14.97-17.08
				c6.11-1.9,12.42-2.24,18.78-1.8C668.19,143.34,670.64,143.55,673.25,143.76z M673.23,157.49c-3.65-0.18-7.23-0.51-10.8-0.46
				c-1.91,0.03-3.86,0.54-5.69,1.16c-2.33,0.8-3.55,2.67-3.69,5.12c-0.14,2.37,0.68,4.36,2.76,5.63c0.98,0.6,2.09,1.06,3.2,1.37
				c2.92,0.83,5.92,0.66,8.89,0.34c1.78-0.2,3.55-0.51,5.33-0.77C673.23,165.76,673.23,161.82,673.23,157.49z"/>
			
				<linearGradient id="SVGID_00000150063922755805774160000012803150666858949786_" gradientUnits="userSpaceOnUse" x1="783.5751" y1="150.4444" x2="845.7887" y2="150.4444">
				<stop  offset="0" style="stop-color:#0092C4"/>
				<stop  offset="1" style="stop-color:#004D93"/>
			</linearGradient>
			<path style="fill:url(#SVGID_00000150063922755805774160000012803150666858949786_);" d="M804.74,157.58
				c-0.79,6.81,2.13,11.71,8.91,12.56c6.61,0.83,12.75-0.83,18.57-3.89c0.63-0.33,1.23-0.71,1.85-1.05c1-0.55,1.77-0.49,2.46,0.41
				c2.53,3.3,5.05,6.61,7.49,9.97c0.93,1.28,0.6,2.43-0.69,3.41c-7,5.28-14.9,8.09-23.64,8.7c-6.98,0.49-13.79-0.14-20.23-3.01
				c-9.15-4.09-14.4-11.14-15.6-21.12c-0.22-1.86-0.25-3.76-0.26-5.64c-0.02-5.94-0.09-11.89,0.06-17.83
				c0.34-13,8.11-22.61,20.75-25.66c8.51-2.05,17.01-1.98,25.25,1.28c8.89,3.52,13.99,10.29,15.41,19.63
				c0.66,4.33,0.51,8.78,0.67,13.18c0.08,2.06,0.02,4.13,0.01,6.19c-0.01,2.21-0.65,2.87-2.85,2.87c-12.28,0.01-24.55,0-36.83,0
				C805.63,157.58,805.17,157.58,804.74,157.58z M825.73,144.03c-0.08-1.71-0.09-3.37-0.24-5.02c-0.38-4.02-2.96-7.08-6.81-8.09
				c-2.52-0.66-5.06-0.63-7.57,0.11c-2.82,0.83-4.74,2.63-5.74,5.39c-0.89,2.45-0.83,5-0.74,7.6
				C811.65,144.03,818.6,144.03,825.73,144.03z"/>
			
				<linearGradient id="SVGID_00000137109518750681808970000012424181935734547341_" gradientUnits="userSpaceOnUse" x1="708.2063" y1="149.7359" x2="771.1909" y2="149.7359">
				<stop  offset="0" style="stop-color:#0092C4"/>
				<stop  offset="1" style="stop-color:#004D93"/>
			</linearGradient>
			<path style="fill:url(#SVGID_00000137109518750681808970000012424181935734547341_);" d="M708.21,152.62
				c0-10.03,0-20.07,0.01-30.1c0-0.74-0.07-1.59,0.26-2.19c0.37-0.68,1.06-1.37,1.78-1.66c6.21-2.54,12.67-4.1,19.33-4.93
				c4.64-0.58,9.28-0.85,13.94-0.39c7.51,0.74,14.39,2.99,19.79,8.58c3.93,4.06,6.16,9.02,7.06,14.53c0.5,3.07,0.75,6.22,0.77,9.33
				c0.08,12.31,0.03,24.62,0.03,36.94c0,0.28,0.01,0.57,0,0.85c-0.06,2.09-0.77,2.77-2.89,2.78c-5.12,0-10.25,0-15.37,0
				c-2,0-2.77-0.77-2.77-2.78c-0.01-13.24,0-26.48-0.03-39.71c-0.01-2.35-0.37-4.67-1.35-6.85c-1.39-3.08-3.9-4.62-7.12-5.08
				c-3.88-0.55-7.72-0.09-11.54,0.71c-0.84,0.18-1.04,0.57-1.03,1.38c0.02,16.16,0.02,32.31,0.02,48.47c0,0.36,0,0.71,0,1.07
				c-0.04,2.13-0.71,2.8-2.83,2.8c-5.05,0-10.11,0-15.16,0c-2.19,0-2.87-0.69-2.87-2.99C708.2,173.12,708.21,162.87,708.21,152.62z"
				/>
			
				<linearGradient id="SVGID_00000170980813325431431220000000715720672851549326_" gradientUnits="userSpaceOnUse" x1="894.1482" y1="149.6409" x2="936.5351" y2="149.6409">
				<stop  offset="0" style="stop-color:#0092C4"/>
				<stop  offset="1" style="stop-color:#004D93"/>
			</linearGradient>
			<path style="fill:url(#SVGID_00000170980813325431431220000000715720672851549326_);" d="M894.18,152.62c0-10,0.04-20-0.03-30
				c-0.02-2.24,0.82-3.52,2.86-4.42c6.3-2.79,12.87-4.36,19.73-4.91c5.87-0.47,11.64,0.25,17.4,1.16c1.71,0.27,2.38,1.1,2.39,2.84
				c0.01,4.02,0.01,8.04,0,12.06c-0.01,2.03-0.9,2.71-2.89,2.46c-5.74-0.71-11.47-0.97-17.13,0.71c-1.08,0.32-1.49,0.77-1.48,1.97
				c0.05,15.94,0.03,31.89,0.03,47.83c0,0.43,0.01,0.85-0.01,1.28c-0.07,1.89-0.73,2.52-2.64,2.52c-5.05,0-10.11,0-15.16,0
				c-2.49,0-3.06-0.57-3.06-3.09C894.18,172.91,894.18,162.76,894.18,152.62z"/>
			
				<linearGradient id="SVGID_00000027597527069938809590000000923217318812857777_" gradientUnits="userSpaceOnUse" x1="858.1617" y1="150.5964" x2="879.0726" y2="150.5964">
				<stop  offset="0" style="stop-color:#0092C4"/>
				<stop  offset="1" style="stop-color:#004D93"/>
			</linearGradient>
			<path style="fill:url(#SVGID_00000027597527069938809590000000923217318812857777_);" d="M879.07,150.61
				c0,10.74,0,21.49-0.01,32.23c0,0.53-0.02,1.07-0.13,1.59c-0.22,1.1-0.88,1.7-1.99,1.7c-5.51,0.02-11.03,0.03-16.54,0
				c-1.37-0.01-2.15-0.85-2.23-2.21c-0.02-0.35-0.01-0.71-0.01-1.07c0-21.56,0-43.11,0-64.67c0-2.54,0.6-3.13,3.13-3.13
				c4.87,0,9.75,0,14.62,0c2.56,0,3.15,0.58,3.15,3.12C879.07,128.98,879.07,139.79,879.07,150.61z"/>
			
				<linearGradient id="SVGID_00000093138734809687035590000008274217173116175785_" gradientUnits="userSpaceOnUse" x1="857.08" y1="93.7556" x2="880.154" y2="93.7556">
				<stop  offset="0" style="stop-color:#0092C4"/>
				<stop  offset="1" style="stop-color:#004D93"/>
			</linearGradient>
			<path style="fill:url(#SVGID_00000093138734809687035590000008274217173116175785_);" d="M868.67,82.3
				c6.77,0.01,11.5,4.73,11.48,11.46c-0.01,6.62-4.91,11.47-11.56,11.46c-6.58-0.01-11.54-4.98-11.51-11.53
				C857.1,87.03,861.93,82.29,868.67,82.3z"/>
		</g>
		<g>
			
				<linearGradient id="SVGID_00000115502322001491743330000009652438489541570714_" gradientUnits="userSpaceOnUse" x1="520.8574" y1="246.7768" x2="582.9849" y2="246.7768">
				<stop  offset="0" style="stop-color:#0092C4"/>
				<stop  offset="1" style="stop-color:#004D93"/>
			</linearGradient>
			<path style="fill:url(#SVGID_00000115502322001491743330000009652438489541570714_);" d="M541.99,253.91
				c-0.83,7.56,2.76,12.39,10.62,12.73c6.61,0.29,12.68-1.58,18.35-4.9c1.47-0.87,2.11-0.78,3.16,0.6c2.3,3.03,4.58,6.06,6.84,9.12
				c1.26,1.7,1.04,2.76-0.67,4.03c-6.97,5.18-14.81,7.92-23.46,8.51c-6.9,0.47-13.63-0.15-20-2.98
				c-9.19-4.08-14.47-11.13-15.67-21.15c-0.21-1.72-0.25-3.47-0.25-5.21c-0.01-6.08-0.09-12.16,0.06-18.23
				c0.34-12.98,8.11-22.59,20.74-25.62c8.51-2.05,16.99-1.98,25.22,1.28c8.88,3.52,13.8,10.31,15.46,19.6
				c0.84,4.69,0.56,9.42,0.6,14.14c0.02,1.74,0.01,3.48,0,5.22c-0.01,2.2-0.65,2.86-2.86,2.86c-12.26,0.01-24.53,0-36.79,0
				C542.87,253.91,542.42,253.91,541.99,253.91z M541.62,240.36c7.31,0,14.25,0,21.35,0c-0.08-1.69-0.1-3.31-0.24-4.93
				c-0.34-4-2.89-7.07-6.73-8.13c-2.44-0.68-4.91-0.66-7.36,0c-3.2,0.87-5.42,2.87-6.16,6.11
				C541.97,235.64,541.9,237.95,541.62,240.36z"/>
			
				<linearGradient id="SVGID_00000124847134412168904990000006472802348186914227_" gradientUnits="userSpaceOnUse" x1="591.2907" y1="246.8182" x2="651.7378" y2="246.8182">
				<stop  offset="0" style="stop-color:#0092C4"/>
				<stop  offset="1" style="stop-color:#004D93"/>
			</linearGradient>
			<path style="fill:url(#SVGID_00000124847134412168904990000006472802348186914227_);" d="M619.8,284.16
				c-8.85-0.08-18.28-2.82-26.8-8.53c-1.94-1.3-2.15-2.15-0.98-4.14c1.97-3.37,3.96-6.73,5.94-10.09c0.09-0.15,0.18-0.31,0.27-0.46
				c1-1.52,1.79-1.66,3.37-0.76c2.06,1.18,4.09,2.45,6.26,3.37c5.62,2.39,11.48,3.41,17.56,2.22c1.15-0.23,2.31-0.75,3.29-1.4
				c2.74-1.82,2.69-5.44-0.23-6.94c-1.92-0.99-4.09-1.61-6.22-2.03c-5.5-1.08-10.99-2.16-16.06-4.71
				c-5.46-2.75-9.93-6.53-11.5-12.68c-2.03-7.93-0.83-15.26,5.26-21.21c3.53-3.44,7.99-5.21,12.75-6.2
				c12.19-2.53,23.76-0.7,34.74,5.1c1.5,0.79,1.85,1.79,1.01,3.24c-2.09,3.63-4.22,7.23-6.38,10.82c-0.83,1.38-1.8,1.61-3.37,0.82
				c-3.42-1.72-6.99-2.92-10.78-3.47c-3.21-0.47-6.44-0.67-9.63,0.12c-2.82,0.69-4.08,2.33-3.97,4.97c0.08,1.92,1.22,3.14,2.89,3.7
				c2.17,0.73,4.41,1.34,6.66,1.73c5.6,0.97,11.15,2.1,16.27,4.71c5.13,2.61,9.27,6.26,10.67,12.03c2.01,8.24,0.8,15.9-5.37,22.2
				c-3.38,3.45-7.74,5.19-12.36,6.28C629.2,283.77,625.21,284.12,619.8,284.16z"/>
		</g>
		<g>
			<path class="st15" d="M890.09,242.82c-4.92,1.32-9.62,3.19-14.28,5.53c-1.13-2-2.25-4.02-3.41-6.02
				c-4.1-7.07-1.9-17.12,3.23-22.52c0.98-1.03,2.09-1.7,3.57-1.79c0.6-0.03,1.22-0.39,1.76-0.72c0.55-0.33,0.6-0.85,0.28-1.44
				c-0.59-1.05-1.45-1.84-2.58-2.1c-1.73-0.41-3.5-0.77-5.27-0.86c-6.06-0.31-11.14,1.91-14.74,6.76
				c-4.81,6.49-5.33,13.91-3.61,21.53c0.48,2.15,1.64,4.15,2.48,6.2c-0.09-0.01-0.31-0.04-0.53-0.07c-1.43-0.21-2.75-0.09-3.58,1.6
				c-0.97,1.99-2.08,3.91-3.08,5.89c-2.63,5.21-5.38,10.34-8.68,15.17c-0.87,1.27-1.79,2.51-2.83,3.94
				c-0.09-0.49-0.16-0.71-0.16-0.93c-0.1-2.8-0.35-5.61-0.26-8.41c0.14-4.27,0.44-8.53,0.81-12.78c0.42-4.84,1.05-9.65,1.46-14.49
				c0.38-4.35,0.65-8.71,0.85-13.07c0.13-2.76-1.3-4.07-3.82-4.8c-0.68-0.2-1.41-0.3-2.12-0.32c-3.28-0.1-7.27,0.81-9.15,5.01
				c-1.45,3.25-2.51,6.59-2.67,10.13c-0.23,5.15-0.39,10.3-0.37,15.45c0.02,5.68,0.62,11.32,2.11,16.83
				c0.94,3.49,1.92,6.97,3.89,10.06c1.93,3.03,5.28,4.4,8.78,3.78c2.38-0.42,3.94-1.9,5.28-3.73c3.82-5.19,6.94-10.8,9.79-16.54
				c1.88-3.77,3.54-7.65,5.27-11.42c1.96,2.39,3.97,4.85,5.94,7.26c-2.34,2.53-4.69,4.89-6.83,7.43c-3.81,4.51-6.81,9.42-7.59,15.47
				c-0.73,5.67,3.18,11.25,8.81,12.24c4.39,0.77,8.74,0.53,12.9-1.05c5.81-2.21,10.17-6.08,12.32-12.03
				c1.73-4.82,1.13-9.69-0.59-14.36c-1.28-3.47-3.04-6.76-4.6-10.12c-0.7-1.51-0.76-1.59,0.76-2.35c3.17-1.59,6.38-3.09,9.59-4.6
				c0.41-0.2,0.89-0.36,1.34-0.52c0.48-1.18,0.66-2.36,0.55-3.54C890.87,242.61,890.54,242.7,890.09,242.82z M872.76,278.64
				c-0.58,4.4-4.72,8.57-9.1,9.38c-1.36,0.25-2.41-0.55-3.3-1.39c-2.62-2.46-3.3-5.62-2.85-9.04c0.64-4.84,3.17-8.83,6.01-12.64
				c1.17-1.56,2.46-3.04,3.81-4.71c2.37,4.13,4.8,8.01,5.4,12.64C872.98,274.78,873.01,276.75,872.76,278.64z"/>
			<path class="st16" d="M1014.93,236.15c-0.16-0.4-1.16-0.71-1.74-0.65c-1.68,0.17-3.34,0.48-4.99,0.86
				c-2.75,0.63-5.47,1.35-8.3,2.06c-0.13-0.5-0.23-0.94-0.36-1.36c-0.85-2.8-1.52-5.66-2.59-8.37
				c-2.84-7.13-10.06-11.87-17.59-10.64c-6.29,1.03-10.91,4.3-13.32,10.3c-1.51,3.74-0.45,7.3,2.73,9.75c1,0.77,2.11,1.4,3.17,2.1
				c0.28,0.18,0.55,0.37,0.91,0.62c-3.2,1.14-4.86,2.79-6,7.27c-0.24,0.94-0.37,1.94-0.77,2.81c-2.66,5.79-5.25,11.62-8.12,17.32
				c-1.97,3.92-4.33,7.64-6.55,11.43c-0.29,0.5-0.79,0.88-1.42,1.56c-0.31-0.96-0.63-1.61-0.72-2.28
				c-0.75-5.83-0.83-11.66,0.5-17.41c1.84-7.98,3.81-15.94,5.88-23.86c1.39-5.32,2.57-10.63,2.4-16.17
				c-0.11-3.69-2.16-6.02-5.45-6.16c-2.29-0.1-4.46,0.41-6.25,1.83c-1.58,1.24-3.07,2.63-4.42,4.13
				c-5.19,5.78-9.11,12.36-12.05,19.53c-0.26,0.64-0.56,1.26-0.84,1.9c-0.16-2.27-0.04-4.49-0.19-6.7
				c-0.21-3.11-0.53-6.22-0.99-9.31c-0.24-1.64-0.87-3.25-2.23-4.35c-3.23-2.61-8.78-1.89-10.97,1.62
				c-1.42,2.27-2.62,4.74-3.55,7.26c-2.96,8.01-4.21,16.43-5.7,24.78c-0.24,1.35-0.37,2.71-0.55,4.07c-0.11,0-0.22,0-0.32,0
				c-0.1-1.22-0.28-2.43-0.28-3.65c0.06-8.71,0.15-17.42,0.25-26.13c0.02-1.67-0.36-2.38-1.99-2.81c-2.67-0.71-5.75-0.32-7.5,3.11
				c-1.59,3.11-2.45,6.43-2.9,9.87c-0.18,1.4-0.21,1.75-0.96,2.04c0.11,1.18-0.07,2.36-0.55,3.54c0.37-0.14,0.7-0.28,1.1-0.43
				c0,0.41,0,0.69,0,0.98c-0.08,4.67,0.23,9.32,1.17,13.9c0.96,4.67,2.33,9.21,4.68,13.39c0.94,1.67,2.12,3.12,3.83,4.08
				c3.68,2.07,7.86,0,8.32-4.17c0.32-2.91,0.44-5.85,0.86-8.75c0.89-6.22,1.8-12.43,2.91-18.61c0.98-5.44,2.22-10.84,4.25-16.01
				c0.12-0.31,0.27-0.6,0.4-0.91c0,3.12-0.17,6.17-0.43,9.21c-0.67,7.7-1.2,15.41-0.94,23.15c0.11,3.23,1.19,6.06,3.25,8.49
				c0.52,0.62,1.42,1.16,2.21,1.26c1.57,0.21,3.18,0.18,4.76,0.08c1.46-0.09,1.88-0.5,2.15-1.94c0.43-2.27,0.74-4.56,1.13-6.84
				c1.72-10.03,4.44-19.74,9.44-28.69c2.13-3.82,4.4-7.55,7.4-10.77c0.29-0.31,0.63-0.55,0.95-0.83c0.08,0.48,0.02,0.83-0.09,1.16
				c-0.98,3.07-1.94,6.14-2.94,9.2c-2.64,8.03-5.42,16.03-7.02,24.36c-1.15,5.95-1.73,11.94-0.67,17.97
				c0.6,3.43,1.92,6.45,4.76,8.69c3.62,2.86,10.37,3.18,13.6-0.56c1.25-1.45,2.45-3,3.31-4.69c2.46-4.81,4.73-9.71,7.08-14.57
				c0.13-0.27,0.25-0.54,0.32-0.67c0.75,2.57,1.36,5.21,2.3,7.72c1.11,2.97,2.82,5.6,5.65,7.27c4.33,2.55,11.37,1.65,15.24-1.93
				c1.81-1.68,3.26-3.64,4.43-5.81c3.76-7,5.73-14.5,6.15-22.41c0.11-2.04,0.02-4.1,0.02-6.13c1.69-0.48,3.18-0.82,4.62-1.32
				c3-1.04,5.99-2.14,8.96-3.28C1014.35,237.42,1015.25,236.96,1014.93,236.15z M973.35,229.95c0.11-1.17,0.47-2.37,0.94-3.45
				c0.8-1.85,2.11-3.35,3.7-4.6c1.45-1.15,3.01-1.44,4.76-0.78c3.36,1.27,5.85,3.53,7.4,6.73c1.57,3.26,2.66,6.7,3.22,10.29
				c0.19,1.2,0.01,1.47-1.2,1.58c-0.94,0.08-1.89,0.02-2.83,0.02c-4.22,0.11-8.21-0.79-11.88-2.92
				C974.84,235.3,973.05,233.18,973.35,229.95z M991.44,259.88c-1.48,4.72-3.46,9.2-6.43,13.18c-0.52,0.7-1.16,1.32-1.79,1.94
				c-0.67,0.65-1.03,0.63-1.35-0.27c-0.64-1.8-1.35-3.62-1.65-5.49c-0.43-2.72-0.69-5.5-0.73-8.26c-0.08-5.38,0.03-10.76,0.11-16.14
				c0.02-1.5,0.35-1.77,1.58-1.73c4.01,0.13,8.01,0.24,12.02,0.37c0.19,0.01,0.38,0.02,0.69,0.04
				C993.67,249.13,993.1,254.59,991.44,259.88z"/>
			<path class="st17" d="M776.65,256.43c-0.32,0.57-0.58,1.17-0.87,1.75c-2.85,5.72-6.01,11.26-9.71,16.48
				c-0.21,0.3-0.49,0.55-0.8,0.88c-0.14-0.24-0.23-0.34-0.26-0.46c-0.08-0.35-0.2-0.7-0.2-1.05c0.03-5.41-0.07-10.83,0.16-16.23
				c0.16-3.7,0.77-7.38,1.18-11.07c0.55-4.95,1.23-9.9,1.64-14.86c0.34-4.15,0.43-8.33,0.48-12.5c0.03-2.2-1.08-3.48-3.3-3.8
				c-1.72-0.25-3.5-0.08-5.25-0.16c-1.95-0.08-2.77,1.09-3.4,2.72c-1.65,4.26-2.99,8.61-3.85,13.08c-0.71,3.71-1.06,7.49-1.91,11.16
				c-2.35,10.25-6.55,19.74-12.4,28.48c-1.13,1.68-2.52,3.19-3.79,4.78c-0.12-0.04-0.25-0.08-0.37-0.13
				c-0.44-1.39-1.04-2.74-1.3-4.16c-0.4-2.24-0.67-4.51-0.83-6.78c-0.61-8.69-0.12-17.34,1.32-25.92c0.75-4.49,1.69-8.95,2.54-13.43
				c0.29-1.51-0.05-2.29-1.49-2.88c-1.16-0.48-2.4-0.92-3.63-1.06c-4.43-0.49-6.53,0.34-8.63,3.8c-0.45,0.75-0.88,1.53-1.24,2.32
				c-2.55,5.6-3.39,11.59-3.89,17.64c-0.42,5.08-0.31,10.17,0.38,15.23c0.51,3.75,1.21,7.44,2.91,10.88
				c2.94,5.95,7.59,9.38,14.28,9.88c3.15,0.24,5.79-0.71,7.61-3.43c0.56-0.84,1.18-1.65,1.63-2.55c1.99-3.91,3.93-7.86,5.89-11.79
				c0.17-0.33,0.34-0.66,0.51-0.98c0.48,2.69,0.88,5.35,1.46,7.96c0.74,3.33,1.99,6.43,4.29,9.07c3.37,3.86,12.26,5,15.76-1.34
				c1.75-3.16,3.64-6.24,5.35-9.43c0.94-1.77,1.79-3.6,2.65-5.44c0-4.86,0-12.92,0-17.32C779.55,249.66,778.52,253.11,776.65,256.43
				z"/>
			<path class="st18" d="M822.34,222.21c-0.26-2.29-1.52-3.87-3.72-4.56c-3.09-0.97-5.84-0.26-8.25,1.89
				c-2.65,2.37-4.45,5.35-6.01,8.49c-4.03,8.1-6.36,16.76-8.23,25.56c-0.36,1.68-0.58,3.38-0.87,5.07c-0.07,0-0.14,0-0.22,0
				c-0.04-0.28-0.1-0.55-0.1-0.83c-0.07-2.51-0.14-5.02-0.17-7.53c-0.08-6.69-0.12-13.38-0.2-20.06c-0.02-1.85-0.47-2.47-2.24-3.06
				c-4.07-1.36-9.21-0.46-11.04,5.22c-1.31,4.05-1.88,8.25-1.69,12.43c0.01,0.33-0.03,0.65-0.03,0.98c0,4.4,0,12.46,0,17.32
				c0.34-0.73,0.67-1.45,1.02-2.18c0.1,0.22,0.18,0.36,0.22,0.51c0.54,2.07,0.99,4.18,1.65,6.22c1.06,3.25,2.24,6.45,4.35,9.23
				c2.18,2.87,4.89,4.38,8.61,3.81c2.14-0.32,3.42-1.4,3.65-3.52c0.24-2.24,0.4-4.48,0.64-6.71c0.82-7.58,2.09-15.09,3.87-22.5
				c1.66-6.88,3.86-13.57,7.03-19.92c0.18-0.36,0.4-0.71,0.73-1.27c-0.13,1.12-0.27,1.96-0.32,2.8c-0.05,0.84-0.07,1.7,0.01,2.54
				c0.13,1.36,0.49,2.68,1.83,3.37c2.7,1.38,6.13,0.31,7.46-2.38C822,229.68,822.77,226.04,822.34,222.21z"/>
			<path class="st19" d="M695.41,186.46c-1.61-0.25-3.11-0.51-4.61-0.71c-4.81-0.64-9.62-1.3-14.44-1.86
				c-6.66-0.78-13.29-0.87-19.7,1.49c-7.19,2.65-12.02,7.72-14.26,15.01c-1.31,4.3-0.81,8.56,2.07,12.23
				c0.87,1.11,2.11,1.92,3.19,2.85c0.46,0.4,0.94,0.78,1.54,1.29c-1.48,0.93-2.93,1.25-4.39,0.73c-7.73-2.75-12.64-9.82-10.51-18.34
				c0.87-3.5,2.67-6.48,5.01-9.17c3.85-4.42,8.36-7.89,14.18-9.21c2.82-0.64,5.71-1.04,8.59-1.25c3.99-0.29,8.02-0.56,12.01-0.38
				c5.53,0.25,11.05,0.8,16.54,1.46c6.46,0.78,12.88,1.95,19.34,2.71c7.13,0.84,14.27,0.84,21.22-1.32
				c4.92-1.53,9.17-4.2,12.58-8.09c1.85-2.11,1.9-4.69,0.31-7c-0.55-0.79-0.32-1.36,0.68-1.66c4.1-1.25,7.85,0.95,8.84,5.19
				c0.66,2.83-0.57,5.03-2.37,6.99c-4.22,4.62-9.58,7.32-15.48,9.08c-4.93,1.47-9.97,2.26-15.12,2.16c-3.75-0.07-7.5-0.11-11.25-0.2
				c-0.84-0.02-1.67-0.15-2.6-0.24c-0.19,1.43-0.35,2.78-0.54,4.13c-0.68,4.64-1.41,9.27-2.07,13.91c-0.6,4.22-1.19,8.45-1.65,12.69
				c-0.58,5.41-1.14,10.83-1.5,16.26c-0.61,9.21-0.88,18.44-0.56,27.68c0.27,7.87,1.29,15.64,2.59,23.39
				c0.22,1.34-0.4,2.26-1.73,2.64c-2.73,0.78-5.02,0.04-6.81-2.3c-3.33-4.33-5.72-9.14-7.27-14.38c-1.75-5.91-2.73-11.93-2.74-18.09
				c-0.01-5.48-0.21-10.97,0.04-16.44c0.28-5.98,0.91-11.96,1.53-17.92c0.75-7.2,2.1-14.3,4.15-21.24c0.91-3.08,2.12-6.07,3.3-9.06
				C693.96,188.48,694.71,187.58,695.41,186.46z"/>
			<path class="st15" d="M835.68,213.32c-2.18-0.23-4.19-0.61-5.81-2.15c-0.8-0.76-0.9-1.19,0.01-1.77c0.83-0.54,1.88-0.82,2.87-1
				c2.4-0.44,4.67,0.04,6.7,1.4c0.43,0.29,0.95,0.93,0.9,1.33c-0.06,0.47-0.64,1.07-1.13,1.25
				C838.08,212.8,836.86,213.01,835.68,213.32z"/>
		</g>
	</g>
</g>
</svg>
